<svg width="36" height="38" viewBox="0 0 36 38" fill="none" xmlns="http://www.w3.org/2000/svg">
<path d="M15.7545 3.36041C15.0582 2.8408 14.2028 2.5691 13.3289 2.58951H3.85714C2.83418 2.58951 1.85308 2.98852 1.12973 3.69875C0.406376 4.40898 0 5.37226 0 6.37669V31.6244C0 32.629 0.406376 33.5922 1.12973 34.3024C1.85308 35.0126 2.83415 35.4116 3.85714 35.4116H32.1429C33.1658 35.4116 34.147 35.0126 34.8704 34.3024C35.5937 33.5922 36 32.629 36 31.6244V11.4263C36 10.4218 35.5937 9.45854 34.8704 8.74832C34.147 8.03807 33.1658 7.63908 32.1429 7.63908H17.7181L17.1654 5.4683C16.9539 4.62884 16.4557 3.8837 15.7545 3.36041Z" fill="#CDB3FA"/>
<path fill-rule="evenodd" clip-rule="evenodd" d="M19.9285 15.2136C19.9285 14.1678 19.0651 13.32 18 13.32C16.9349 13.32 16.0714 14.1678 16.0714 15.2136V19.632H11.5714C10.5063 19.632 9.64282 20.4798 9.64282 21.5255C9.64282 22.5713 10.5063 23.4191 11.5714 23.4191H16.0714V27.8375C16.0714 28.8833 16.9349 29.7311 18 29.7311C19.0651 29.7311 19.9285 28.8833 19.9285 27.8375V23.4191H24.4285C25.4936 23.4191 26.3571 22.5713 26.3571 21.5255C26.3571 20.4798 25.4936 19.632 24.4285 19.632H19.9285V15.2136Z" fill="#7543F6"/>
</svg>
