<svg width="18" height="18" viewBox="0 0 18 18" fill="none" xmlns="http://www.w3.org/2000/svg">
<path fill-rule="evenodd" clip-rule="evenodd" d="M11.2025 2.68802C11.2025 1.64223 10.339 0.794434 9.27389 0.794434C8.20878 0.794434 7.34532 1.64223 7.34532 2.68802V7.10638H2.84532C1.78021 7.10638 0.916748 7.95418 0.916748 8.99997C0.916748 10.0458 1.78021 10.8936 2.84532 10.8936H7.34532V15.3119C7.34532 16.3577 8.20878 17.2055 9.27389 17.2055C10.339 17.2055 11.2025 16.3577 11.2025 15.3119V10.8936H15.7025C16.7676 10.8936 17.631 10.0458 17.631 8.99997C17.631 7.95418 16.7676 7.10638 15.7025 7.10638H11.2025V2.68802Z" fill="black"/>
</svg>
