<svg width="20" height="20" viewBox="0 0 20 20" fill="none" xmlns="http://www.w3.org/2000/svg">
<g clip-path="url(#clip0_226_57739)">
<path fill-rule="evenodd" clip-rule="evenodd" d="M6.42857 1.42857C6.42857 0.639593 5.78897 0 5 0C4.21103 0 3.57143 0.639593 3.57143 1.42857V2.85714H2.14286C0.95939 2.85714 0 3.81653 0 5V7.14286H20V5C20 3.81653 19.0406 2.85714 17.8571 2.85714H16.4287V1.42857C16.4287 0.639593 15.7891 0 15.0001 0C14.2112 0 13.5716 0.639593 13.5716 1.42857V2.85714H6.42857V1.42857ZM20 8.92857H0V17.8571C0 19.0406 0.95939 20 2.14286 20H17.8571C19.0406 20 20 19.0406 20 17.8571V8.92857Z" fill="currentColor"/>
</g>
<defs>
<clipPath id="clip0_226_57739">
<rect width="20" height="20" fill="white"/>
</clipPath>
</defs>
</svg>
