<svg width="60" height="60" viewBox="0 0 60 60" fill="none" xmlns="http://www.w3.org/2000/svg">
<g clip-path="url(#clip0_77_6426)">
<rect width="60" height="60" rx="30" fill="#8E8E8E"/>
<path fill-rule="evenodd" clip-rule="evenodd" d="M47.4915 42.4705C47.7723 42.4705 48 42.2072 48 41.8823L48 25.4117C48 25.0869 47.7723 24.8235 47.4915 24.8235L18.5085 24.8235C18.2277 24.8235 18 25.0868 18 25.4117L18 41.8823C18 42.2072 18.2277 42.4705 18.5085 42.4705L39.3349 42.4705L40.9495 45.7058C41.1452 46.098 41.6345 46.098 41.8302 45.7058L43.4448 42.4705H47.4915Z" fill="#1E1E1E"/>
<path fill-rule="evenodd" clip-rule="evenodd" d="M12.5085 33.6471C12.2277 33.6471 12 33.3837 12 33.0588L12 16.5882C12 16.2634 12.2277 16 12.5085 16L41.4915 16C41.7723 16 42 16.2634 42 16.5882L42 33.0588C42 33.3837 41.7723 33.6471 41.4915 33.6471L20.6651 33.6471L19.0505 36.8824C18.8548 37.2745 18.3655 37.2745 18.1698 36.8824L16.5552 33.6471H12.5085Z" fill="#E8E8E8"/>
<path d="M21.3062 24.8235C21.3062 25.7982 20.7579 26.5882 20.0817 26.5882C19.4054 26.5882 18.8572 25.7982 18.8572 24.8235C18.8572 23.8489 19.4054 23.0588 20.0817 23.0588C20.7579 23.0588 21.3062 23.8489 21.3062 24.8235Z" fill="#1E1E1E"/>
<path d="M28.6531 24.8235C28.6531 25.7982 28.1049 26.5882 27.4286 26.5882C26.7523 26.5882 26.2041 25.7982 26.2041 24.8235C26.2041 23.8489 26.7523 23.0588 27.4286 23.0588C28.1049 23.0588 28.6531 23.8489 28.6531 24.8235Z" fill="#1E1E1E"/>
<path d="M36 24.8235C36 25.7982 35.4518 26.5882 34.7755 26.5882C34.0992 26.5882 33.551 25.7982 33.551 24.8235C33.551 23.8489 34.0992 23.0588 34.7755 23.0588C35.4518 23.0588 36 23.8489 36 24.8235Z" fill="#1E1E1E"/>
<rect width="60" height="60" rx="30" fill="#EFE5FD"/>
<g clip-path="url(#clip1_77_6426)">
<path fill-rule="evenodd" clip-rule="evenodd" d="M26.1819 12C22.4207 12 18.8135 13.4942 16.1538 16.1538C13.4942 18.8134 12.0001 22.4206 12.0001 26.1819C11.9912 28.9734 12.8162 31.704 14.3693 34.0236L12.4743 39.0946C12.265 39.6547 12.745 40.2297 13.3336 40.124L19.9753 38.929C20.6349 39.2505 21.3166 39.5197 22.0139 39.7347C21.7711 38.6716 21.6429 37.5651 21.6429 36.4286C21.6429 28.2626 28.2627 21.6429 36.4286 21.6429C37.5698 21.6429 38.6809 21.7722 39.7478 22.0169C39.2276 20.3232 38.3934 18.7388 37.2857 17.3478C35.9564 15.6784 34.2676 14.3306 32.3451 13.4047C30.4225 12.4787 28.3158 11.9986 26.1819 12ZM44.6114 28.2463C42.4411 26.0763 39.4978 24.8571 36.429 24.8571C34.6879 24.856 32.969 25.2478 31.4003 26.0033C29.8317 26.7587 28.4537 27.8585 27.3692 29.2205C26.2846 30.5826 25.5214 32.1718 25.1364 33.8698C24.7514 35.5678 24.7545 37.3308 25.1456 39.0275C25.5366 40.7241 26.3054 42.3107 27.3949 43.6687C28.4843 45.0269 29.8661 46.1218 31.4375 46.8717C33.0088 47.6215 34.7291 48.0072 36.4702 48C38.2113 47.9925 39.9283 47.5924 41.4933 46.8292L46.667 47.7601C47.2556 47.866 47.7354 47.2911 47.5261 46.7307L46.0673 42.8268C47.3345 40.9342 48.0077 38.7063 48.0005 36.4286C48.0005 33.3597 46.7814 30.4164 44.6114 28.2463Z" fill="#432499"/>
</g>
</g>
<defs>
<clipPath id="clip0_77_6426">
<rect width="60" height="60" rx="30" fill="white"/>
</clipPath>
<clipPath id="clip1_77_6426">
<rect width="36" height="36" fill="white" transform="translate(12 12)"/>
</clipPath>
</defs>
</svg>
