<svg width="41" height="50" viewBox="0 0 41 50" fill="none" xmlns="http://www.w3.org/2000/svg">
<path fill-rule="evenodd" clip-rule="evenodd" d="M11.0715 0C9.59222 0 8.39297 1.19924 8.39297 2.67857C8.39297 4.15789 9.59222 5.35714 11.0715 5.35714H34.2858C34.779 5.35714 35.1787 5.75689 35.1787 6.25V40.1786C35.1787 41.6579 36.378 42.8571 37.8573 42.8571C39.3365 42.8571 40.5358 41.6579 40.5358 40.1786V6.25C40.5358 2.79822 37.7376 0 34.2858 0H11.0715ZM0.356934 14.2857C0.356934 11.327 2.7554 8.92857 5.71408 8.92857H25.3569C28.3156 8.92857 30.7141 11.327 30.7141 14.2857V44.6429C30.7141 47.6014 28.3156 50 25.3569 50H5.71408C2.7554 50 0.356934 47.6014 0.356934 44.6429V14.2857ZM6.1594 17.8571C6.1594 16.6244 7.15879 15.625 8.39154 15.625H22.6773C23.91 15.625 24.9094 16.6244 24.9094 17.8571C24.9094 19.0899 23.91 20.0893 22.6773 20.0893H8.39154C7.15879 20.0893 6.1594 19.0899 6.1594 17.8571ZM8.39329 24.5536C7.1605 24.5536 6.16115 25.5529 6.16115 26.7857C6.16115 28.0185 7.1605 29.0179 8.39329 29.0179H22.679C23.9118 29.0179 24.9111 28.0185 24.9111 26.7857C24.9111 25.5529 23.9118 24.5536 22.679 24.5536H8.39329ZM6.15843 35.7143C6.15843 34.4815 7.15783 33.4821 8.39058 33.4821H15.5334C16.7662 33.4821 17.7656 34.4815 17.7656 35.7143C17.7656 36.9471 16.7662 37.9464 15.5334 37.9464H8.39058C7.15783 37.9464 6.15843 36.9471 6.15843 35.7143Z" fill="black"/>
</svg>
