<svg width="28" height="28" viewBox="0 0 28 28" fill="none" xmlns="http://www.w3.org/2000/svg">
<path d="M3.94434 22.5557L3.94434 6.61127C3.94434 6.18172 4.29256 5.8335 4.72211 5.8335L9.36141 5.8335C9.62147 5.8335 9.86431 5.96346 10.0086 6.17984L11.8801 8.98715C12.0244 9.20353 12.2672 9.3335 12.5273 9.3335L21.8332 9.3335C22.2628 9.3335 22.611 9.68172 22.611 10.1113L22.611 22.5557C22.611 22.9853 22.2628 23.3335 21.8332 23.3335L4.72211 23.3335C4.29256 23.3335 3.94434 22.9853 3.94434 22.5557Z" fill="#787878"/>
<path d="M6.90468 11.8617L4.195 22.3617C4.06795 22.8541 4.43967 23.3339 4.9481 23.3339L22.0267 23.3339C22.3727 23.3339 22.6772 23.1053 22.7736 22.7729L25.822 12.273C25.9665 11.7754 25.5932 11.2783 25.0751 11.2783L7.65778 11.2783C7.30308 11.2783 6.99331 11.5183 6.90468 11.8617Z" fill="#1E1E1E"/>
</svg>
