<svg width="28" height="29" viewBox="0 0 28 29" fill="none" xmlns="http://www.w3.org/2000/svg">
<path d="M26.251 14.7721C26.251 13.7649 26.1676 13.0299 25.9871 12.2676H14.251V16.8137H21.1398C21.001 17.9435 20.251 19.6449 18.5843 20.7881L18.5609 20.9403L22.2716 23.7575L22.5287 23.7826C24.8898 21.6457 26.251 18.5015 26.251 14.7721Z" fill="#4285F4"/>
<path d="M14.2497 26.75C17.6246 26.75 20.4579 25.6611 22.5274 23.7828L18.5829 20.7883C17.5274 21.5097 16.1107 22.0133 14.2497 22.0133C10.9441 22.0133 8.13862 19.8764 7.13853 16.9227L6.99193 16.9349L3.13347 19.8614L3.08301 19.9988C5.13853 24.0005 9.36075 26.75 14.2497 26.75Z" fill="#34A853"/>
<path d="M7.14078 16.9228C6.8769 16.1606 6.72418 15.3439 6.72418 14.5001C6.72418 13.6561 6.8769 12.8395 7.1269 12.0773L7.11991 11.9149L3.21308 8.94153L3.08525 9.00111C2.23807 10.6617 1.75195 12.5264 1.75195 14.5001C1.75195 16.4737 2.23807 18.3383 3.08525 19.9989L7.14078 16.9228Z" fill="#FBBC05"/>
<path d="M14.2497 6.98663C16.5969 6.98663 18.1802 7.98024 19.083 8.81057L22.6108 5.435C20.4442 3.46139 17.6247 2.25 14.2497 2.25C9.36079 2.25 5.13855 4.99942 3.08301 9.00106L7.12467 12.0772C8.13865 9.1236 10.9442 6.98663 14.2497 6.98663Z" fill="#EB4335"/>
</svg>
