<svg xmlns="http://www.w3.org/2000/svg">
    <symbol viewBox="0 0 20 20" id="calendar">
        <g clip-path="url(#clip0_226_57739)">
            <path fill-rule="evenodd" clip-rule="evenodd" d="M6.42857 1.42857C6.42857 0.639593 5.78897 0 5 0C4.21103 0 3.57143 0.639593 3.57143 1.42857V2.85714H2.14286C0.95939 2.85714 0 3.81653 0 5V7.14286H20V5C20 3.81653 19.0406 2.85714 17.8571 2.85714H16.4287V1.42857C16.4287 0.639593 15.7891 0 15.0001 0C14.2112 0 13.5716 0.639593 13.5716 1.42857V2.85714H6.42857V1.42857ZM20 8.92857H0V17.8571C0 19.0406 0.95939 20 2.14286 20H17.8571C19.0406 20 20 19.0406 20 17.8571V8.92857Z"/>
        </g>
        <defs>
            <clipPath id="clip0_226_57739">
                <rect width="20" height="20" fill="white"/>
            </clipPath>
        </defs>
    </symbol>
    <symbol viewBox="0 0 20 20" id="pencil">
        <path d="M15.3117 0C15.0262 0 14.7436 0.0570291 14.4803 0.167739C14.2188 0.27776 13.9817 0.438592 13.7829 0.640891L2.01106 12.3513C1.92366 12.4382 1.86026 12.5463 1.82702 12.665L0.0264792 19.0932C-0.0431204 19.3416 0.0267639 19.6083 0.209289 19.7908C0.391815 19.9732 0.658598 20.0431 0.907168 19.9735L7.33767 18.1737C7.45639 18.1404 7.5645 18.0769 7.65147 17.9897L19.366 6.22228L19.368 6.22035C19.5679 6.02155 19.7266 5.78525 19.8351 5.52498C19.944 5.26388 20 4.98382 20 4.70095C20 4.41808 19.944 4.13801 19.8351 3.8769C19.7266 3.61663 19.5679 3.38032 19.368 3.18153L19.366 3.17962L16.8421 0.642384C16.643 0.439382 16.4053 0.27803 16.1431 0.167739C15.8799 0.0570291 15.5973 0 15.3117 0Z"/>
    </symbol>
    <symbol viewBox="0 0 20 20" id="setting">
        <g clip-path="url(#clip0_226_57785)">
            <path fill-rule="evenodd" clip-rule="evenodd" d="M7.93851 0.984616L7.27697 2.69231L5.00004 3.98461L3.18466 3.70769C2.88239 3.66666 2.57473 3.71643 2.30079 3.85066C2.02686 3.98489 1.799 4.19751 1.6462 4.46154L1.03082 5.53846C0.873125 5.80669 0.800473 6.11643 0.822445 6.4268C0.844418 6.73717 0.959985 7.03359 1.15389 7.27693L2.30774 8.70769V11.2923L1.18466 12.7231C0.990754 12.9664 0.875188 13.2628 0.853215 13.5732C0.831241 13.8836 0.903894 14.1933 1.06158 14.4616L1.67697 15.5384C1.82977 15.8024 2.05763 16.0151 2.33156 16.1493C2.60549 16.2836 2.91314 16.3333 3.21543 16.2923L5.03081 16.0154L7.27697 17.3077L7.93851 19.0154C8.05007 19.3046 8.24636 19.5533 8.50166 19.7289C8.75696 19.9046 9.05937 19.9991 9.36927 20H10.6616C10.9715 19.9991 11.2739 19.9046 11.5292 19.7289C11.7845 19.5533 11.9808 19.3046 12.0924 19.0154L12.7539 17.3077L15.0001 16.0154L16.8155 16.2923C17.1178 16.3333 17.4253 16.2836 17.6993 16.1493C17.9732 16.0151 18.2011 15.8024 18.3539 15.5384L18.9693 14.4616C19.1269 14.1933 19.1996 13.8836 19.1776 13.5732C19.1556 13.2628 19.0401 12.9664 18.8462 12.7231L17.6923 11.2923V8.70769L18.8155 7.27693C19.0093 7.03359 19.1249 6.73717 19.1469 6.4268C19.1689 6.11643 19.0962 5.80669 18.9385 5.53846L18.3231 4.46154C18.1703 4.19751 17.9425 3.98489 17.6685 3.85066C17.3946 3.71643 17.0869 3.66666 16.7846 3.70769L14.9693 3.98461L12.7231 2.69231L12.0616 0.984616C11.95 0.695483 11.7537 0.446786 11.4984 0.271096C11.2431 0.095406 10.9407 0.000915471 10.6308 0H9.36927C9.05937 0.000915471 8.75696 0.095406 8.50166 0.271096C8.24636 0.446786 8.05007 0.695483 7.93851 0.984616ZM10.0001 13.2143C11.7753 13.2143 13.2143 11.7752 13.2143 10C13.2143 8.2248 11.7753 6.78571 10.0001 6.78571C8.22486 6.78571 6.78577 8.2248 6.78577 10C6.78577 11.7752 8.22486 13.2143 10.0001 13.2143Z"/>
        </g>
        <defs>
            <clipPath id="clip0_226_57785">
                <rect width="20" height="20" fill="white"/>
            </clipPath>
        </defs>
    </symbol>
    <symbol viewBox="0 0 20 20" id="webcam">
        <path fill-rule="evenodd" clip-rule="evenodd" d="M2.14286 2.85718C0.95939 2.85718 0 3.81656 0 5.00003V15C0 16.1835 0.95939 17.1429 2.14286 17.1429H12.8571C14.0406 17.1429 15 16.1835 15 15V13.9404L18.0087 15.2299C18.9513 15.6339 20 14.9423 20 13.9168V6.08328C20 5.05768 18.9513 4.36621 18.0087 4.77021L15 6.05965V5.00003C15 3.81656 14.0406 2.85718 12.8571 2.85718H2.14286Z"/>
    </symbol>
    <symbol id="check" viewBox="0 0 14 10">
        <path d="M2 3.55556L6.375 9L12 2" stroke-width="1.5" stroke-linecap="square" stroke-linejoin="bevel" fill="none"/>
    </symbol>
</svg>