<svg xmlns="http://www.w3.org/2000/svg">
    <symbol viewBox="0 0 20 20" id="calendar">
        <g clip-path="url(#clip0_226_57739)">
            <path fill-rule="evenodd" clip-rule="evenodd" d="M6.42857 1.42857C6.42857 0.639593 5.78897 0 5 0C4.21103 0 3.57143 0.639593 3.57143 1.42857V2.85714H2.14286C0.95939 2.85714 0 3.81653 0 5V7.14286H20V5C20 3.81653 19.0406 2.85714 17.8571 2.85714H16.4287V1.42857C16.4287 0.639593 15.7891 0 15.0001 0C14.2112 0 13.5716 0.639593 13.5716 1.42857V2.85714H6.42857V1.42857ZM20 8.92857H0V17.8571C0 19.0406 0.95939 20 2.14286 20H17.8571C19.0406 20 20 19.0406 20 17.8571V8.92857Z"/>
        </g>
        <defs>
            <clipPath id="clip0_226_57739">
                <rect width="20" height="20" fill="white"/>
            </clipPath>
        </defs>
    </symbol>
    <symbol viewBox="0 0 20 20" id="pencil">
        <path d="M15.3117 0C15.0262 0 14.7436 0.0570291 14.4803 0.167739C14.2188 0.27776 13.9817 0.438592 13.7829 0.640891L2.01106 12.3513C1.92366 12.4382 1.86026 12.5463 1.82702 12.665L0.0264792 19.0932C-0.0431204 19.3416 0.0267639 19.6083 0.209289 19.7908C0.391815 19.9732 0.658598 20.0431 0.907168 19.9735L7.33767 18.1737C7.45639 18.1404 7.5645 18.0769 7.65147 17.9897L19.366 6.22228L19.368 6.22035C19.5679 6.02155 19.7266 5.78525 19.8351 5.52498C19.944 5.26388 20 4.98382 20 4.70095C20 4.41808 19.944 4.13801 19.8351 3.8769C19.7266 3.61663 19.5679 3.38032 19.368 3.18153L19.366 3.17962L16.8421 0.642384C16.643 0.439382 16.4053 0.27803 16.1431 0.167739C15.8799 0.0570291 15.5973 0 15.3117 0Z"/>
    </symbol>
    <symbol viewBox="0 0 20 20" id="setting">
        <g clip-path="url(#clip0_226_57785)">
            <path fill-rule="evenodd" clip-rule="evenodd" d="M7.93851 0.984616L7.27697 2.69231L5.00004 3.98461L3.18466 3.70769C2.88239 3.66666 2.57473 3.71643 2.30079 3.85066C2.02686 3.98489 1.799 4.19751 1.6462 4.46154L1.03082 5.53846C0.873125 5.80669 0.800473 6.11643 0.822445 6.4268C0.844418 6.73717 0.959985 7.03359 1.15389 7.27693L2.30774 8.70769V11.2923L1.18466 12.7231C0.990754 12.9664 0.875188 13.2628 0.853215 13.5732C0.831241 13.8836 0.903894 14.1933 1.06158 14.4616L1.67697 15.5384C1.82977 15.8024 2.05763 16.0151 2.33156 16.1493C2.60549 16.2836 2.91314 16.3333 3.21543 16.2923L5.03081 16.0154L7.27697 17.3077L7.93851 19.0154C8.05007 19.3046 8.24636 19.5533 8.50166 19.7289C8.75696 19.9046 9.05937 19.9991 9.36927 20H10.6616C10.9715 19.9991 11.2739 19.9046 11.5292 19.7289C11.7845 19.5533 11.9808 19.3046 12.0924 19.0154L12.7539 17.3077L15.0001 16.0154L16.8155 16.2923C17.1178 16.3333 17.4253 16.2836 17.6993 16.1493C17.9732 16.0151 18.2011 15.8024 18.3539 15.5384L18.9693 14.4616C19.1269 14.1933 19.1996 13.8836 19.1776 13.5732C19.1556 13.2628 19.0401 12.9664 18.8462 12.7231L17.6923 11.2923V8.70769L18.8155 7.27693C19.0093 7.03359 19.1249 6.73717 19.1469 6.4268C19.1689 6.11643 19.0962 5.80669 18.9385 5.53846L18.3231 4.46154C18.1703 4.19751 17.9425 3.98489 17.6685 3.85066C17.3946 3.71643 17.0869 3.66666 16.7846 3.70769L14.9693 3.98461L12.7231 2.69231L12.0616 0.984616C11.95 0.695483 11.7537 0.446786 11.4984 0.271096C11.2431 0.095406 10.9407 0.000915471 10.6308 0H9.36927C9.05937 0.000915471 8.75696 0.095406 8.50166 0.271096C8.24636 0.446786 8.05007 0.695483 7.93851 0.984616ZM10.0001 13.2143C11.7753 13.2143 13.2143 11.7752 13.2143 10C13.2143 8.2248 11.7753 6.78571 10.0001 6.78571C8.22486 6.78571 6.78577 8.2248 6.78577 10C6.78577 11.7752 8.22486 13.2143 10.0001 13.2143Z"/>
        </g>
        <defs>
            <clipPath id="clip0_226_57785">
                <rect width="20" height="20" fill="white"/>
            </clipPath>
        </defs>
    </symbol>
    <symbol viewBox="0 0 20 20" id="webcam">
        <path fill-rule="evenodd" clip-rule="evenodd" d="M2.14286 2.85718C0.95939 2.85718 0 3.81656 0 5.00003V15C0 16.1835 0.95939 17.1429 2.14286 17.1429H12.8571C14.0406 17.1429 15 16.1835 15 15V13.9404L18.0087 15.2299C18.9513 15.6339 20 14.9423 20 13.9168V6.08328C20 5.05768 18.9513 4.36621 18.0087 4.77021L15 6.05965V5.00003C15 3.81656 14.0406 2.85718 12.8571 2.85718H2.14286Z"/>
    </symbol>
    <symbol id="check" viewBox="0 0 14 10">
        <path d="M2 3.55556L6.375 9L12 2" stroke-width="1.5" stroke-linecap="square" stroke-linejoin="bevel" fill="none"/>
    </symbol>
    <symbol viewBox="0 0 40 40" id="screen">
        <path d="M5.71429 25.1937V5.92794H34.2857V25.1937H5.71429ZM4.16226 0C1.86351 0 0 1.9332 0 4.31789V26.8038C0 29.1886 1.86351 31.1217 4.16226 31.1217H15.6659L14.1367 35.554H11.4285C10.2451 35.554 9.28566 36.5493 9.28566 37.777C9.28566 39.0047 10.2451 40 11.4285 40H28.5714C29.7549 40 30.7143 39.0047 30.7143 37.777C30.7143 36.5493 29.7549 35.554 28.5714 35.554H25.8633L24.3341 31.1217H35.8377C38.1366 31.1217 40 29.1886 40 26.8038V4.31789C40 1.9332 38.1366 0 35.8377 0H4.16226Z"/>
    </symbol>
    <symbol viewBox="0 0 40 40" id="microphone">
        <path d="M19.2858 0C17.0533 0 14.9122 0.88686 13.3336 2.46548C11.755 4.04411 10.8681 6.18517 10.8681 8.41769V18.2024C10.8681 20.4349 11.755 22.576 13.3336 24.1546C14.9122 25.7332 17.0533 26.6201 19.2858 26.6201C21.5183 26.6201 23.6594 25.7332 25.238 24.1546C26.8166 22.576 27.7035 20.4349 27.7035 18.2024V8.41769C27.7035 6.18517 26.8166 4.04411 25.238 2.46548C23.6594 0.88686 21.5183 0 19.2858 0ZM17.1429 34.3071V37.7717C17.1429 38.9551 18.1023 39.9146 19.2857 39.9146C20.4692 39.9146 21.4286 38.9551 21.4286 37.7717V34.3071C29.3812 33.9343 35.7143 27.3685 35.7143 19.3237C35.7143 18.1403 34.7549 17.1809 33.5715 17.1809C32.388 17.1809 31.4286 18.1403 31.4286 19.3237C31.4286 25.2411 26.6317 30.038 20.7143 30.038H19.3248C19.3118 30.0377 19.2988 30.0377 19.2857 30.0377C19.2727 30.0377 19.2597 30.0377 19.2467 30.038H17.8572C11.9398 30.038 7.14289 25.2411 7.14289 19.3237C7.14289 18.1403 6.18349 17.1809 5.00003 17.1809C3.81658 17.1809 2.85718 18.1403 2.85718 19.3237C2.85718 27.3685 9.19029 33.9343 17.1429 34.3071Z"/>
    </symbol>
    <symbol id="palette" viewBox="0 0 14 14">
        <path fill-rule="evenodd" clip-rule="evenodd" d="M4.34955 0.577145C5.5268 0.0669898 6.82161 -0.109798 8.09252 0.0660954C9.36344 0.241989 10.5615 0.763799 11.556 1.57451C12.5502 2.3851 13.3027 3.45332 13.731 4.6625C14.0004 5.42021 13.8806 6.28804 13.416 6.94442C12.9515 7.6006 12.1732 8.002 11.3692 8H9.49996H9.49857C9.1415 7.99901 8.79579 8.12544 8.52359 8.35655C8.2514 8.58766 8.07057 8.90828 8.01363 9.26079C7.95668 9.61329 8.02736 9.97455 8.21294 10.2796C8.39853 10.5847 8.68685 10.8135 9.02607 10.925C9.03213 10.927 9.03815 10.9291 9.04413 10.9313C9.5942 11.1357 9.97895 11.6332 10.0159 12.217C10.0966 12.8877 9.65907 13.5577 9.00576 13.7412C8.39536 13.9146 7.76369 14.0017 7.12914 14C5.84632 13.9993 4.58834 13.6461 3.49262 12.979C1.27912 11.6313 -0.0291126 9.1028 0.149526 6.51747C0.328164 3.93215 1.97173 1.60757 4.34955 0.577145ZM4.49994 7C5.32837 7 5.99994 6.32843 5.99994 5.5C5.99994 4.67157 5.32837 4 4.49994 4C3.67151 4 2.99994 4.67157 2.99994 5.5C2.99994 6.32843 3.67151 7 4.49994 7ZM10.4998 4.00049C10.4998 4.82892 9.82825 5.50049 8.99982 5.50049C8.17139 5.50049 7.49982 4.82892 7.49982 4.00049C7.49982 3.17206 8.17139 2.50049 8.99982 2.50049C9.82825 2.50049 10.4998 3.17206 10.4998 4.00049ZM4.49982 10.4995C5.0521 10.4995 5.49982 10.0518 5.49982 9.49951C5.49982 8.94723 5.0521 8.49951 4.49982 8.49951C3.94753 8.49951 3.49982 8.94723 3.49982 9.49951C3.49982 10.0518 3.94753 10.4995 4.49982 10.4995Z"/>
    </symbol>
    <symbol viewBox="0 0 40 40" id="exit">
        <path fill-rule="evenodd" clip-rule="evenodd" d="M22.8571 2.85714C22.8571 1.27919 21.5779 0 20 0C18.4221 0 17.1429 1.27919 17.1429 2.85714V17.3626C17.1429 18.9406 18.4221 20.2198 20 20.2198C21.5779 20.2198 22.8571 18.9406 22.8571 17.3626V2.85714ZM11.2088 8.7396C12.4526 7.76854 12.6737 5.97306 11.7026 4.72929C10.7316 3.48549 8.93609 3.2644 7.69232 4.23543C4.40969 6.79826 2.00896 10.3219 0.825104 14.3146C-0.358751 18.3074 -0.266673 22.5701 1.08849 26.508C2.44365 30.446 4.99429 33.8626 8.38452 36.2811C11.7747 38.7 15.8354 40 20 40C24.1646 40 28.2253 38.7 31.6154 36.2811C35.0057 33.8626 37.5563 30.446 38.9114 26.508C40.2666 22.5701 40.3589 18.3074 39.1749 14.3146C37.9911 10.3219 35.5903 6.79826 32.3077 4.23543C31.064 3.2644 29.2683 3.48549 28.2974 4.72929C27.3263 5.97306 27.5474 7.76854 28.7911 8.7396C31.136 10.5702 32.8509 13.087 33.6963 15.939C34.542 18.791 34.4763 21.8358 33.5083 24.6486C32.5403 27.4614 30.7183 29.9017 28.2968 31.6294C25.8752 33.3571 22.9747 34.2857 20 34.2857C17.0253 34.2857 14.1248 33.3571 11.7032 31.6294C9.28163 29.9017 7.45974 27.4614 6.49177 24.6486C5.5238 21.8358 5.45803 18.791 6.30366 15.939C7.14926 13.087 8.86406 10.5702 11.2088 8.7396Z"/>
    </symbol>
    <symbol viewBox="0 0 40 40" id="microphone-off">
        <g clip-path="url(#clip0_630_1981)">
        <path fill-rule="evenodd" clip-rule="evenodd" d="M14.0477 2.46548C15.6263 0.88686 17.7674 0 19.9999 0C22.2324 0 24.3735 0.88686 25.9521 2.46548C27.5307 4.04411 28.4176 6.18517 28.4176 8.41769V18.2024C28.4176 20.1424 27.7479 22.0133 26.5366 23.5061L29.4537 26.4231C31.1289 24.5314 32.1429 22.0465 32.1429 19.3237C32.1429 18.1403 33.1023 17.1809 34.2857 17.1809C35.4691 17.1809 36.4286 18.1403 36.4286 19.3237C36.4286 23.2309 34.9331 26.7898 32.4877 29.4574L39.3723 36.342C40.2091 37.1789 40.2091 38.5354 39.3723 39.3723C38.5354 40.2091 37.1789 40.2091 36.342 39.3723L23.0267 26.0571C23.0243 26.058 23.0221 26.0589 23.0198 26.0597L11.5822 14.6222V14.6127L0.627628 3.65809C-0.209209 2.82125 -0.209209 1.46447 0.627628 0.627629C1.46447 -0.209209 2.82125 -0.209209 3.65809 0.627629L11.5822 8.55174V8.41769C11.5822 6.18517 12.4691 4.04411 14.0477 2.46548ZM22.1429 32.1806C22.1429 30.9971 21.1835 30.0377 20 30.0377L19.9609 30.038H18.5714C12.6541 30.038 7.85714 25.2411 7.85714 19.3237C7.85714 18.1403 6.89774 17.1809 5.71428 17.1809C4.53083 17.1809 3.57143 18.1403 3.57143 19.3237C3.57143 27.3685 9.90454 33.9343 17.8571 34.3071V37.7717C17.8571 38.9551 18.8165 39.9146 20 39.9146C21.1835 39.9146 22.1429 38.9551 22.1429 37.7717V32.1806Z"/>
        </g>
        <defs>
        <clipPath id="clip0_630_1981">
        <rect width="40" height="40" fill="white"/>
        </clipPath>
        </defs>
    </symbol>
    <symbol viewBox="0 0 40 40" id="screen-off">
        <g clip-path="url(#clip0_630_1407)">
        <path fill-rule="evenodd" clip-rule="evenodd" d="M39.3163 3.82361C40.1531 2.98678 40.1531 1.62999 39.3163 0.793155C38.4794 -0.0436819 37.1226 -0.0436819 36.2857 0.793155L31.3723 5.7065L26.4591 0.793155C25.6222 -0.0436819 24.2655 -0.0436819 23.4286 0.793155C22.5918 1.62999 22.5918 2.98678 23.4286 3.82361L28.342 8.73695L23.4286 13.6503C22.5918 14.4871 22.5918 15.8439 23.4286 16.6808C24.2655 17.5176 25.6222 17.5176 26.4591 16.6808L31.3723 11.7674L36.2857 16.6808C37.1226 17.5176 38.4794 17.5176 39.3163 16.6808C40.1531 15.8439 40.1531 14.4871 39.3163 13.6503L34.4029 8.73695L39.3163 3.82361ZM24.3296 31.4288H35.7143C38.0811 31.4288 40 29.5099 40 27.1431V24.2859C40 22.708 38.7209 21.4288 37.1429 21.4288C35.5649 21.4288 34.2857 22.708 34.2857 24.2859V25.7145H5.71429V8.57164H15.7143C17.2922 8.57164 18.5714 7.29244 18.5714 5.7145C18.5714 4.13655 17.2922 2.85735 15.7143 2.85735H4.28571C1.91878 2.85735 0 4.77612 0 7.14307V27.1431C0 29.5099 1.91878 31.4288 4.28571 31.4288H15.6708L14.137 35.7145H11.4286C10.2451 35.7145 9.28571 36.6739 9.28571 37.8574C9.28571 39.0408 10.2451 40.0002 11.4286 40.0002H28.5714C29.7549 40.0002 30.7143 39.0408 30.7143 37.8574C30.7143 36.6739 29.7549 35.7145 28.5714 35.7145H25.8635L24.3296 31.4288Z"/>
        </g>
        <defs>
        <clipPath id="clip0_630_1407">
        <rect width="40" height="40" fill="white"/>
        </clipPath>
        </defs>
    </symbol>
    <symbol viewBox="0 0 40 40" id="webcam-off">
        <g clip-path="url(#clip0_630_397)">
        <path fill-rule="evenodd" clip-rule="evenodd" d="M0.627629 3.65809C-0.209209 2.82125 -0.209209 1.46447 0.627629 0.627628C1.46447 -0.209209 2.82125 -0.209209 3.65809 0.627628L8.74474 5.71429H25.7143C28.0812 5.71429 30 7.63306 30 10V12.1192L36.0174 9.54034C37.9026 8.73234 40 10.1153 40 12.1665V27.8335C40 29.8846 37.9026 31.2677 36.0174 30.4597L31.5946 28.5642L39.3723 36.342C40.2091 37.1789 40.2091 38.5354 39.3723 39.3723C38.5354 40.2091 37.1789 40.2091 36.342 39.3723L0.627629 3.65809ZM0 10C0 9.43071 0.110995 8.88737 0.312526 8.3904L26.1825 34.2603C26.0288 34.2771 25.8725 34.2857 25.7143 34.2857H4.28571C1.91878 34.2857 0 32.3669 0 30V10Z"/>
        </g>
        <defs>
        <clipPath id="clip0_630_397">
        <rect width="40" height="40" fill="white"/>
        </clipPath>
        </defs>
    </symbol>
</svg>