<svg width="28" height="29" viewBox="0 0 28 29" fill="none" xmlns="http://www.w3.org/2000/svg">
<g clip-path="url(#clip0_147_12375)">
<path d="M25.2 0.5H2.8C1.2536 0.5 0 1.7536 0 3.3V25.7C0 27.2464 1.2536 28.5 2.8 28.5H25.2C26.7464 28.5 28 27.2464 28 25.7V3.3C28 1.7536 26.7464 0.5 25.2 0.5Z" fill="#FBE300"/>
<path fill-rule="evenodd" clip-rule="evenodd" d="M14.5 5.36242C9.25304 5.36242 5.00002 8.6759 5.00002 12.7625C5.00002 15.3041 6.645 17.5446 9.14996 18.8772L8.09599 22.7597C8.00287 23.1028 8.39196 23.3762 8.69073 23.1774L13.3108 20.1026C13.7007 20.1406 14.0969 20.1627 14.5 20.1627C19.7466 20.1627 23.9999 16.8494 23.9999 12.7625C23.9999 8.6759 19.7466 5.36242 14.5 5.36242Z" fill="black"/>
</g>
<defs>
<clipPath id="clip0_147_12375">
<rect width="28" height="28" fill="white" transform="translate(0 0.5)"/>
</clipPath>
</defs>
</svg>
