<svg width="56" height="56" viewBox="0 0 56 56" fill="none" xmlns="http://www.w3.org/2000/svg">
<path fill-rule="evenodd" clip-rule="evenodd" d="M12.6558 17.847C16.4452 17.847 19.5172 14.7751 19.5172 10.9856C19.5172 7.19619 16.4452 4.12427 12.6558 4.12427C8.8664 4.12427 5.79444 7.19619 5.79444 10.9856C5.79444 14.7751 8.8664 17.847 12.6558 17.847ZM43.3444 17.847C47.1336 17.847 50.2056 14.7751 50.2056 10.9856C50.2056 7.19619 47.1336 4.12427 43.3444 4.12427C39.5549 4.12427 36.4829 7.19619 36.4829 10.9856C36.4829 14.7751 39.5549 17.847 43.3444 17.847ZM43.3444 19.2777C40.4792 19.2777 37.8428 20.258 35.7526 21.9016C38.269 24.0766 39.8614 27.2919 39.8614 30.8791C39.8614 31.8045 39.7554 32.7052 39.5549 33.5697H53.6364C54.7408 33.5697 55.6364 32.6743 55.6364 31.5697C55.6364 24.781 50.1332 19.2777 43.3444 19.2777ZM12.6558 19.2777C15.5211 19.2777 18.1574 20.258 20.2475 21.9015C17.7311 24.0766 16.1387 27.2919 16.1387 30.8791C16.1387 31.8045 16.2447 32.7052 16.4452 33.5697H2.36377C1.2592 33.5697 0.36377 32.6743 0.36377 31.5697C0.36377 24.781 5.86712 19.2777 12.6558 19.2777ZM28 37.7404C31.7895 37.7404 34.8614 34.6685 34.8614 30.8791C34.8614 27.0896 31.7895 24.0177 28 24.0177C24.2106 24.0177 21.1387 27.0896 21.1387 30.8791C21.1387 34.6685 24.2106 37.7404 28 37.7404ZM15.708 51.4633C15.708 44.6745 21.2114 39.1711 28 39.1711C34.7888 39.1711 40.292 44.6745 40.292 51.4633C40.292 52.5677 39.3967 53.4633 38.2921 53.4633H17.708C16.6034 53.4633 15.708 52.5677 15.708 51.4633Z" fill="black"/>
</svg>
