<svg width="20" height="20" viewBox="0 0 20 20" fill="none" xmlns="http://www.w3.org/2000/svg">
<path d="M15.3117 0C15.0262 0 14.7436 0.0570291 14.4803 0.167739C14.2188 0.27776 13.9817 0.438592 13.7829 0.640891L2.01106 12.3513C1.92366 12.4382 1.86026 12.5463 1.82702 12.665L0.0264792 19.0932C-0.0431204 19.3416 0.0267639 19.6083 0.209289 19.7908C0.391815 19.9732 0.658598 20.0431 0.907168 19.9735L7.33767 18.1737C7.45639 18.1404 7.5645 18.0769 7.65147 17.9897L19.366 6.22228L19.368 6.22035C19.5679 6.02155 19.7266 5.78525 19.8351 5.52498C19.944 5.26388 20 4.98382 20 4.70095C20 4.41808 19.944 4.13801 19.8351 3.8769C19.7266 3.61663 19.5679 3.38032 19.368 3.18153L19.366 3.17962L16.8421 0.642384C16.643 0.439382 16.4053 0.27803 16.1431 0.167739C15.8799 0.0570291 15.5973 0 15.3117 0Z" fill="currentColor"/>
</svg>
