<svg width="36" height="36" viewBox="0 0 36 36" fill="none" xmlns="http://www.w3.org/2000/svg">
<path fill-rule="evenodd" clip-rule="evenodd" d="M14.25 5.75C9.55558 5.75 5.75 9.55558 5.75 14.25C5.75 18.9444 9.55558 22.75 14.25 22.75C18.9444 22.75 22.75 18.9444 22.75 14.25C22.75 9.55558 18.9444 5.75 14.25 5.75ZM3.25 14.25C3.25 8.17487 8.17487 3.25 14.25 3.25C20.3251 3.25 25.25 8.17487 25.25 14.25C25.25 20.3251 20.3251 25.25 14.25 25.25C8.17487 25.25 3.25 20.3251 3.25 14.25Z" fill="#1E1E1E"/>
<path fill-rule="evenodd" clip-rule="evenodd" d="M22.5002 20.7324L31.768 30.0002L30.0002 31.768L20.7324 22.5002L22.5002 20.7324Z" fill="#1E1E1E"/>
</svg>
